<svg viewBox="0 0 16 27"><path clip-rule="evenodd" d="M1.141 7.018c0-3.694 3.155-6.834 6.867-6.834 3.713 0 6.868 3.14 6.868 6.834 0 3.694-3.155 6.834-6.868 6.834-3.712 0-6.867-3.14-6.867-6.834zm4.082 0c0 1.478 1.3 2.771 2.784 2.771 1.485 0 2.784-1.293 2.784-2.77 0-1.478-1.299-2.77-2.784-2.77-1.485 0-2.784 1.292-2.784 2.77z" fill-rule="evenodd"></path><path clip-rule="evenodd" d="M10.422 19.023c2.784-.554 4.27-1.847 4.455-1.847.742-.554.928-1.847.371-2.585-.557-.74-1.856-.924-2.598-.37 0 0-1.67 1.478-4.64 1.478-2.97 0-4.64-1.478-4.64-1.478-.743-.554-2.042-.554-2.599.37-.557.738-.557 2.031.371 2.585.186 0 1.856 1.478 4.64 2.032l-3.897 4.063c-.743.74-.557 1.847 0 2.586.37.37.742.554 1.299.554.557 0 .928-.184 1.485-.554l3.526-3.878 4.083 3.878c.743.739 1.856.739 2.599 0 .742-.739.742-1.847 0-2.586l-4.455-4.248z" fill-rule="evenodd"></path></svg>