<svg width="19" height="18" viewBox="0 0 19 18" fill="none" xmlns="http://www.w3.org/2000/svg"><path d="M9.11146 0.130979C5.43551 0.130979 1.94483 -0.191665 0.611526 3.18462C0.0607922 4.57908 0.14077 6.39009 0.14077 8.98323C0.14077 11.2587 0.0668665 13.3974 0.611526 14.7808C1.94179 18.1591 5.46082 17.8355 9.10943 17.8355C12.6295 17.8355 16.2589 18.1971 17.6084 14.7808C18.1601 13.3724 18.0791 11.5884 18.0791 8.98323C18.0791 5.52504 18.2725 3.2925 16.5727 1.61634C14.8516 -0.0817865 12.5242 0.130979 9.10741 0.130979H9.11146ZM8.30763 1.72622C15.9754 1.71424 16.9513 0.873163 16.4127 12.5573C16.2214 16.6897 13.0324 16.2362 9.11247 16.2362C1.96508 16.2362 1.75956 16.0345 1.75956 8.97923C1.75956 1.8421 2.3265 1.73022 8.30763 1.72422V1.72622ZM13.9 3.1956C13.3057 3.1956 12.8238 3.67108 12.8238 4.25743C12.8238 4.84379 13.3057 5.31927 13.9 5.31927C14.4943 5.31927 14.9762 4.84379 14.9762 4.25743C14.9762 3.67108 14.4943 3.1956 13.9 3.1956ZM9.11146 4.43724C6.56735 4.43724 4.50513 6.473 4.50513 8.98323C4.50513 11.4935 6.56735 13.5282 9.11146 13.5282C11.6556 13.5282 13.7168 11.4935 13.7168 8.98323C13.7168 6.473 11.6556 4.43724 9.11146 4.43724ZM9.11146 6.03248C13.0648 6.03248 13.0699 11.934 9.11146 11.934C5.15913 11.934 5.15306 6.03248 9.11146 6.03248Z" fill="#005CA9"/></svg>
