<svg width="18" height="11" viewBox="0 0 18 11" fill="none" xmlns="http://www.w3.org/2000/svg"><path fill-rule="evenodd" clip-rule="evenodd" d="M8.72988 10.3651H9.79642C9.79642 10.3651 10.1186 10.3294 10.2831 10.1502C10.4345 9.9857 10.4296 9.6768 10.4296 9.6768C10.4296 9.6768 10.4088 8.23072 11.073 8.01777C11.7277 7.80801 12.5685 9.41539 13.4597 10.0334C14.1336 10.5012 14.6456 10.3986 14.6456 10.3986L17.0285 10.3651C17.0285 10.3651 18.275 10.2875 17.684 9.29717C17.6355 9.21615 17.3397 8.56458 15.9123 7.22571C14.4182 5.82442 14.6183 6.05107 16.4181 3.62714C17.5142 2.15095 17.9523 1.24972 17.8155 0.863725C17.6849 0.496085 16.8788 0.593258 16.8788 0.593258L14.1958 0.610147C14.1958 0.610147 13.997 0.582733 13.8494 0.671828C13.7053 0.75921 13.6125 0.962856 13.6125 0.962856C13.6125 0.962856 13.1879 2.10518 12.6216 3.07666C11.4269 5.12659 10.9492 5.23477 10.754 5.1075C10.2998 4.81084 10.4131 3.91572 10.4131 3.27982C10.4131 1.29329 10.7113 0.465 9.83252 0.250585C9.54087 0.179357 9.32625 0.132362 8.58042 0.124774C7.62313 0.114739 6.81286 0.127711 6.35408 0.354855C6.04887 0.505876 5.81342 0.842431 5.95682 0.861767C6.13413 0.885754 6.53575 0.971178 6.74867 1.26416C7.0236 1.64208 7.01391 2.49094 7.01391 2.49094C7.01391 2.49094 7.17185 4.82944 6.645 5.11998C6.28335 5.31922 5.78726 4.91242 4.72217 3.05268C4.17642 2.10004 3.76438 1.04706 3.76438 1.04706C3.76438 1.04706 3.68493 0.850263 3.54323 0.745013C3.37124 0.617489 3.13095 0.576859 3.13095 0.576859L0.581468 0.593747C0.581468 0.593747 0.198743 0.604517 0.0582488 0.772672C-0.0667424 0.922225 0.0483172 1.23161 0.0483172 1.23161C0.0483172 1.23161 2.0443 5.95023 4.30432 8.32814C6.3766 10.5083 8.72988 10.3651 8.72988 10.3651Z"/></svg>
