<svg width="121" height="167" viewBox="0 0 121 167" fill="none" xmlns="http://www.w3.org/2000/svg">
<g clip-path="url(#clip0)">
<path d="M63.1475 105.123L26.8887 51.3521L119.878 49.3788L88.3059 105.123H63.1475Z" fill="#FEC827"/>
<path d="M115.999 55.9972H30.9384L25.9141 47.2051H122.082L115.999 55.9972Z" fill="#F6A914"/>
<path d="M124.741 142.394L86.5038 100.615L122.045 46.9956C125.638 50.0976 130.921 56.9078 135.284 65.5462C139.732 74.3537 143.209 85.0297 142.974 95.5696C142.394 121.707 130.851 135.855 124.741 142.394Z" fill="#2074F7" stroke="#322776" stroke-width="0.5"/>
<g style="mix-blend-mode:screen">
<path d="M122.89 50.0919L88.5702 102.088L86.8398 100.267L122.197 47.1727C123.889 48.962 128.393 54.1975 132.874 60.8255C135.441 64.6217 137.759 70.8772 139.516 76.7009C141.093 80.5711 142.168 84.3778 142.381 87.8119C141.825 85.1486 140.826 81.0449 139.516 76.7009C135.271 66.2849 127.389 55.4081 122.89 50.0919Z" fill="#0C4DB0"/>
</g>
<path d="M14.3081 61.0085C18.6737 53.5911 23.4019 48.9652 25.6629 47.5226L60.7382 100.632L22.9811 143.429C16.3925 136.377 3.87568 118.143 5.09917 92.2748C5.71665 79.2194 9.81344 68.6452 14.3081 61.0085Z" fill="#2074F7" stroke="#322776" stroke-width="0.5"/>
<path d="M120.763 45.8047L121.921 46.9476L25.7261 47.5258C34.782 38.004 51.4092 21.4674 60.5678 12.3587C63.4992 9.4433 65.6655 7.28883 66.5735 6.36888C68.607 4.30865 71.0636 3.15724 73.569 3.09109C76.0713 3.02503 78.651 4.04074 80.9376 6.36846C83.2684 8.74112 93.6231 18.9932 103.392 28.6497C108.278 33.4784 113.017 38.159 116.536 41.6324C118.295 43.3691 119.749 44.804 120.763 45.8047Z" fill="#005BE7" stroke="#322776" stroke-width="0.5"/>
<path d="M67.7178 9.25704C64.1201 12.6536 41 35.2435 29.5 47.4101H26L65 8.41014C67 6.91014 68.5346 4.00197 73.3346 3.60195C77.6827 3.2396 79.7059 6.04086 81.2059 7.04085L121.5 46.9101H119.5C107 35.2435 81.9882 10.764 80.208 9.25704C77.1759 6.69017 70.6321 6.50566 67.7178 9.25704Z" fill="#0451C4"/>
<g style="mix-blend-mode:screen">
<path d="M24.6292 50.6984L58.9494 102.695L60.6797 100.873L25.3226 47.7793C23.6306 49.5685 18.3663 54.0032 14.3096 61.5967C10.5397 68.6533 8.0167 74.976 6.7148 81.2099C9.61612 68.8879 19.6667 54.7632 24.6292 50.6984Z" fill="#0C4DB0"/>
</g>
<path d="M88.5668 27.0853L46.0391 77.7835L60.643 100.082L86.7726 99.7838L116.175 55.2486L88.5668 27.0853Z" fill="white"/>
<g style="mix-blend-mode:multiply">
<path d="M78.2549 29.8348L83.9258 32.7562L46.12 77.7799L39.7617 68.1565L78.2549 29.8348Z" fill="#C4C4C4"/>
</g>
<path d="M69.847 90.1347L69.8485 90.1331C70.7693 89.0677 72.1851 88.5604 73.6409 88.5797C75.097 88.599 76.5618 89.1456 77.5626 90.1464C79.6559 92.2396 109.75 125.536 124.747 142.322C118.512 150.182 100.391 166.523 76.1425 166.015C60.2816 165.683 48.7805 161.946 40.3271 157.326C31.9913 152.771 26.6081 147.351 22.9205 143.464L69.847 90.1347Z" fill="#4E8FF3" stroke="#322776" stroke-width="0.5"/>
<g style="mix-blend-mode:multiply">
<path d="M23.1328 142.971C98.7034 152.389 133.473 104.499 138.432 73.4305C146.115 92.0208 144.114 121.995 123.863 142.874C83.5177 184.47 38.7664 162.768 23.1328 142.971Z" fill="#113AA3" fill-opacity="0.2"/>
</g>
</g>
<defs>
<clipPath id="clip0">
<rect width="121" height="166" fill="white" transform="translate(0 0.410156)"/>
</clipPath>
</defs>
</svg>
