<svg width="137" height="166" viewBox="0 0 137 166" fill="none" xmlns="http://www.w3.org/2000/svg">
<g clip-path="url(#clip0)">
<circle cx="82.2529" cy="83.3269" r="82.25" fill="#4E8FF3" stroke="#322776" stroke-width="0.5"/>
<path d="M1.88972 97.438C50.2411 96.8484 103.033 68.4355 119.036 10.5385C100.931 0.493638 75.2351 -1.2432 51.492 7.37478C29.1143 15.4972 8.23206 41.4056 3.48344 61.6312C-0.315454 77.8117 0.744782 91.8981 1.88972 97.438Z" fill="#73A9FC"/>
<path d="M90.1058 64.5815C98.4926 64.5815 105.379 57.7931 105.929 49.8817C105.929 45.4899 104.657 42.8318 101.246 38.6519C97.8349 34.4719 88.6573 30.1151 88.6573 30.1151L67.7646 51.7485C69.7314 54.5265 73.1913 58.7898 78.9038 61.772C81.5161 63.6808 86.6227 64.5815 90.1058 64.5815Z" fill="#296CD4"/>
<path d="M75.8932 77.8784L67.7113 123.853H64.6162C63.5116 123.853 62.6162 124.748 62.6162 125.853L63.0563 127.48C63.0563 128.585 66.4466 134.089 72.7981 134.089L101.739 133.829C108.457 133.829 109.651 129.473 109.651 126.255C109.651 121.814 108.763 118.579 103.977 118.048L103.494 82.074C103.494 75.2851 93.4934 68.734 90.1797 68.734L81.8932 71.8784C78.5795 71.8784 75.8932 74.5647 75.8932 77.8784Z" fill="#296CD4"/>
<path d="M67.7728 74.6299V120.604H64.6777C63.5732 120.604 62.6777 121.499 62.6777 122.604V125.993C62.6777 127.097 63.5732 127.993 64.6777 127.993H99.8282C100.933 127.993 101.828 127.097 101.828 125.993V122.604C101.828 121.499 100.933 120.604 99.8282 120.604H95.3739V74.6299C95.3739 71.3162 92.6876 68.6299 89.3739 68.6299H73.7728C70.4591 68.6299 67.7728 71.3162 67.7728 74.6299Z" fill="white"/>
<circle cx="82.2529" cy="44.6259" r="15.8066" fill="white"/>
<path d="M164.323 82.398C164.323 127.829 129.01 165.308 82.2148 165.308C75.406 165.308 70.4683 164.786 67.0658 164.137C65.3644 163.812 64.0491 163.456 63.0769 163.118C62.4236 162.891 61.9319 162.675 61.5837 162.485C61.6429 162.456 61.7038 162.424 61.7662 162.39C62.0431 162.239 62.3728 162.027 62.7508 161.762C63.5071 161.231 64.4722 160.473 65.6216 159.513C67.9213 157.593 70.9729 154.856 74.5938 151.493C81.8366 144.767 91.3671 135.528 101.736 125.298C122.338 104.97 146.255 80.7179 162.119 64.4578C163.015 68.0833 164.323 76.6003 164.323 82.398Z" fill="#FEC827" stroke="#D08B24" stroke-width="0.5"/>
<g style="mix-blend-mode:multiply">
<path d="M74.3765 165.452C94.357 158.275 142.041 104.749 163.783 78.4803C164.419 74.5935 163.064 66.4805 161.909 63.3129L61.4023 162.741C64.391 163.595 71.297 164.904 74.3765 165.452Z" fill="#F7D783"/>
</g>
<path d="M65.7915 158.748L65.9063 158.665L65.8937 158.523C64.8434 146.809 68.1274 117.756 89.6818 95.4246C116.634 67.5016 146.015 67.5626 152.457 67.851C155.806 68.001 158.288 66.0242 159.904 64.4604C160.221 64.1533 160.507 63.8593 160.76 63.6001C160.83 63.5287 160.897 63.4599 160.961 63.3942C161.265 63.0846 161.501 62.8529 161.682 62.7177C161.75 62.6672 161.799 62.6386 161.833 62.6237C161.838 62.6385 161.844 62.659 161.85 62.6865C161.87 62.7758 161.882 62.9085 161.882 63.0968C161.882 64.2979 161.46 65.5596 160.886 66.6765C160.313 67.792 159.599 68.742 159.039 69.3158C144.653 84.0501 122.9 106.094 104.429 124.715C95.1935 134.026 86.7789 142.481 80.5164 148.739C77.385 151.868 74.792 154.447 72.9035 156.31C71.0091 158.178 69.8348 159.314 69.5313 159.567C68.3339 160.565 67.4716 161.229 66.313 161.686C65.1536 162.144 63.6795 162.401 61.2564 162.543C59.3142 162.433 58.1584 161.988 57.6687 161.598C57.5478 161.502 57.4789 161.418 57.4451 161.355C57.412 161.294 57.4194 161.267 57.4204 161.264C57.4213 161.261 57.4296 161.235 57.4912 161.202C57.5546 161.169 57.6598 161.137 57.8172 161.125C57.8172 161.125 57.8172 161.125 57.8172 161.125L57.9663 161.114L57.9804 161.113C60.5216 160.918 63.0709 160.722 65.7915 158.748Z" fill="#005BE7" stroke="#322776" stroke-width="0.5"/>
<path d="M66.2207 148.577C72.0614 113.728 91.2653 98.8359 105.266 88.0012C117.508 78.5271 126.087 74.4377 138.106 71.7688C146.817 69.8344 153.106 70.1643 155.731 69.1828C158.357 68.2013 160.673 65.1247 161.637 62.9886C160.281 64.3576 157.202 67.2068 155.731 67.6524C153.323 68.3821 150.224 67.5954 140.956 68.7714C131.385 69.9859 123.367 73.2871 115.5 76.9101C107.633 80.5331 97.3726 88.5335 91.2653 94.2267C85.158 99.9199 75.8268 113.501 72.7364 122.279C69.8564 130.458 66.2207 143.919 66.2207 148.577Z" fill="#0948AA"/>
</g>
<defs>
<clipPath id="clip0">
<rect width="137" height="165" fill="white" transform="translate(0 0.61853)"/>
</clipPath>
</defs>
</svg>
