<svg preserveAspectRatio="none" viewBox="0 0 222 90" fill="none" xmlns="http://www.w3.org/2000/svg">
<path fill-rule="evenodd" clip-rule="evenodd" d="M19.4561 0.546753C8.96264 0.546753 0.456055 9.05337 0.456055 19.5468V33.0506C0.833928 32.9966 1.22021 32.9687 1.61302 32.9687C6.08862 32.9687 9.7168 36.5969 9.7168 41.0725V44.2968H213.47V41.0725C213.47 36.5969 217.098 32.9687 221.573 32.9687C221.573 32.9687 221.574 32.9687 221.574 32.9687V19.5468C221.574 9.05334 213.067 0.546753 202.574 0.546753H19.4561ZM213.47 45.0834V45.1774C213.47 49.653 217.098 53.2812 221.573 53.2812C221.573 53.2812 221.574 53.2812 221.574 53.2812V71C221.574 81.4934 213.067 90 202.574 90H19.456C8.96263 90 0.456055 81.4934 0.456055 71V53.1992C0.833928 53.2533 1.22021 53.2812 1.61302 53.2812C6.08862 53.2812 9.7168 49.653 9.7168 45.1774V45.0834H213.47Z" fill="url(#paint0_linear)"/>
<path fill-rule="evenodd" clip-rule="evenodd" d="M5.42383 7C7.73051 3.42787 12.9935 0.5 19.3626 0.5L203.33 0.500002C207.085 0.500002 215.192 3.94031 216.423 7C215.339 5.32101 211.044 4.2547 209.232 4.2547L13.501 4.2547C8.12961 4.2547 6.50803 5.32101 5.42383 7Z" fill="white" fill-opacity="0.3"/>
<path fill-rule="evenodd" clip-rule="evenodd" d="M216.424 83.5C214.117 87.0721 208.854 90 202.485 90L18.518 90C14.7623 90 6.65576 86.5597 5.42432 83.5C6.50851 85.179 10.8038 86.2453 12.6156 86.2453L208.347 86.2453C213.718 86.2453 215.34 85.179 216.424 83.5Z" fill="#131634" fill-opacity="0.5"/>
<path d="M9.68262 41.2874H213.498C213.498 41.2874 213.523 42.011 213.498 42.7551C213.472 43.4993 213.498 44.2874 213.498 44.2874H9.68289C9.68289 44.2874 9.68275 43.3412 9.68289 42.8321C9.68303 42.3231 9.68262 41.2874 9.68262 41.2874Z" fill="#131634" fill-opacity="0.5"/>
<path d="M9.72481 45.0668H213.498C213.498 45.0668 213.33 45.7724 213.498 46.5346C213.666 47.2968 214.078 48.0668 214.078 48.0668H9.23145C9.23145 48.0668 9.4667 47.2812 9.60826 46.6395C9.74983 45.9978 9.72481 45.0668 9.72481 45.0668Z" fill="#C2DEFF" fill-opacity="0.3"/>
<defs>
<linearGradient id="paint0_linear" x1="111.015" y1="0.546753" x2="111.015" y2="90" gradientUnits="userSpaceOnUse">
<stop stop-color="#7E7C83"/>
<stop offset="1" stop-color="#564F4F"/>
</linearGradient>
</defs>
</svg>
