<?xml version="1.0" encoding="utf-8"?>
<!-- Generator: Adobe Illustrator 24.2.3, SVG Export Plug-In . SVG Version: 6.00 Build 0)  -->
<svg version="1.1" id="Слой_1" xmlns="http://www.w3.org/2000/svg" xmlns:xlink="http://www.w3.org/1999/xlink" x="0px" y="0px"
     viewBox="0 0 37 37" style="enable-background:new 0 0 37 37;" xml:space="preserve">
    <g id="icon_doc">

		<linearGradient id="Vector_3_2_" gradientUnits="userSpaceOnUse" x1="28.0298901" y1="17.0330658" x2="38.4149895" y2="13.1305962" gradientTransform="matrix(1 0 0 -1 0 38)">
		<stop  offset="0" style="stop-color:#81B2FD"/>
            <stop  offset="1" style="stop-color:#085BFB"/>
	</linearGradient>
        <path id="Vector_3" fill="url(#Vector_3_2_)" d="M35.1934013,34.8905983L35.0261993,9.25h-0.8773003L32.5195007,37h0.5643997
		C34.2489014,37,35.1934013,36.0555992,35.1934013,34.8905983z"/>

        <linearGradient id="Vector_1_" gradientUnits="userSpaceOnUse" x1="20.8125" y1="238.8730011" x2="20.8125" y2="-5659.1499023" gradientTransform="matrix(1 0 0 -1 0 38)">
		<stop  offset="0" style="stop-color:#F3F7FF"/>
            <stop  offset="0.99" style="stop-color:#B5D1FF"/>
	</linearGradient>
        <path id="Vector" fill="url(#Vector_1_)" d="M9.25,0C7.9781199,0,6.9375,1.04062,6.9375,2.3125v32.375C6.9375,35.9594002,7.9781199,37,9.25,37
		h23.125c1.2719002,0,2.3125-1.0405998,2.3125-2.3125V9.25L25.4375,0H9.25z"/>

        <linearGradient id="Vector_2_1_" gradientUnits="userSpaceOnUse" x1="27.9289474" y1="38.7157326" x2="30.4582481" y2="28.8514748" gradientTransform="matrix(1 0 0 -1 0 38)">
		<stop  offset="0" style="stop-color:#81B2FD"/>
            <stop  offset="1" style="stop-color:#085BFB"/>
	</linearGradient>
        <path id="Vector_2" fill="url(#Vector_2_1_)" d="M27.75,9.25h7.2626991L25.4375,0v6.9375C25.4375,8.2093801,26.4780998,9.25,27.75,9.25z"/>
        <path id="Vector_3_1_" fill="#A8C6FD" d="M34.6875,16.1875L27.75,9.25h6.9375V16.1875z"/>

        <linearGradient id="Vector_4_1_" gradientUnits="userSpaceOnUse" x1="16.1875" y1="20.6562004" x2="16.1875" y2="6.7812004" gradientTransform="matrix(1 0 0 -1 0 38)">
		<stop  offset="0" style="stop-color:#0BBBFF"/>
            <stop  offset="1" style="stop-color:#05A4E0"/>
	</linearGradient>
        <path id="Vector_4" fill="url(#Vector_4_1_)" d="M30.0625,30.0625c0,0.6359005-0.5202999,1.1562996-1.1562996,1.1562996H3.46875
		c-0.6359401,0-1.15625-0.5203991-1.15625-1.1562996V18.5c0-0.6359005,0.5203099-1.1562004,1.15625-1.1562004h25.4374504
		c0.6359997,0,1.1562996,0.5202999,1.1562996,1.1562004V30.0625z"/>
        <path id="Vector_5" fill="#FFFFFF" d="M6.6900101,27.7500992c-0.3052502,0-0.6382499-0.1676998-0.6382499-0.5734997v-5.2505989
		c0-0.3330002,0.3329997-0.5734997,0.6382499-0.5734997h2.1170902c4.2248993,0,4.1313,6.3975983,0.0820894,6.3975983H6.6900101z
		 M7.2727599,22.4799004v4.1416988h1.5343404c2.4962997,0,2.6061993-4.1416988,0-4.1416988H7.2727599z"/>
        <path id="Vector_6" fill="#FFFFFF" d="M16.4762993,27.8423996C14.7662001,27.9164009,12.9902,26.7786007,12.9902,24.5135002
		c0-2.2742996,1.7748995-3.3924007,3.4860992-3.3924007c1.6176014,0.0820999,3.3092003,1.2012997,3.3092003,3.3924007
		C19.7854996,26.7057991,18.0939007,27.8423996,16.4762993,27.8423996z M16.3745995,22.3236008
		c-1.0359993,0-2.1633997,0.7306995-2.1633997,2.1910992c0,1.4521999,1.1285,2.1921997,2.1633997,2.1921997
		c1.0636997,0,2.2003002-0.7399998,2.2003002-2.1921997C18.5748997,23.0531998,17.4382992,22.3236008,16.3745995,22.3236008z"/>
        <path id="Vector_7" fill="#FFFFFF" d="M20.8740005,24.5039997c0-1.7840996,1.1192989-3.3185005,3.2455997-3.3185005
		c0.8048,0,1.4429989,0.2405014,2.1170998,0.8233013c0.2497997,0.2300987,0.2775002,0.6371002,0.0277996,0.8960991
		C26.0146999,23.1257,25.6355,23.0991001,25.4134998,22.8771c-0.3780994-0.3976994-0.7665997-0.5076008-1.2938995-0.5076008
		c-1.4232998,0-2.1067009,1.0083008-2.1067009,2.135601c0,1.1469994,0.6741009,2.2003994,2.1067009,2.2003994
		c0.5272999,0,1.0174999-0.2138996,1.4429989-0.5919991c0.2856007-0.2220001,0.6834011-0.1121998,0.8499012,0.1110001
		c0.1479988,0.2034988,0.2208004,0.5457001-0.1018009,0.8682995c-0.6474991,0.6023998-1.4232998,0.7227001-2.1921997,0.7227001
		C21.8822994,27.8155003,20.8740005,26.2880993,20.8740005,24.5039997z"/>
        <path id="Vector_8" fill="#A8C6FD" d="M28.9062004,31.2187996H6.9375V32.375h21.9687004
		c0.6359997,0,1.1562996-0.5202999,1.1562996-1.1562004V30.0625C30.0625,30.6984005,29.5422001,31.2187996,28.9062004,31.2187996z"
        />
</g>
</svg>