<?xml version="1.0" encoding="utf-8"?>
<!-- Generator: Adobe Illustrator 24.2.3, SVG Export Plug-In . SVG Version: 6.00 Build 0)  -->
<svg version="1.1" id="Слой_1" xmlns="http://www.w3.org/2000/svg" xmlns:xlink="http://www.w3.org/1999/xlink" x="0px" y="0px"
     viewBox="0 0 37 37" style="enable-background:new 0 0 37 37;" xml:space="preserve">
<style type="text/css">
</style>
    <linearGradient id="SVGID_1_" gradientUnits="userSpaceOnUse" x1="28.0298901" y1="17.0330658" x2="38.4149895" y2="13.1305962" gradientTransform="matrix(1 0 0 -1 0 38)">
	<stop  offset="0" style="stop-color:#81B2FD"/>
        <stop  offset="1" style="stop-color:#085BFB"/>
</linearGradient>
    <path fill="url(#SVGID_1_)" d="M35.1934013,34.8905983L35.0261993,9.25h-0.8773003L32.5195007,37h0.5643997
	C34.2489014,37,35.1934013,36.0555992,35.1934013,34.8905983z"/>
    <linearGradient id="SVGID_2_" gradientUnits="userSpaceOnUse" x1="20.8125" y1="238.8730011" x2="20.8125" y2="-5659.1499023" gradientTransform="matrix(1 0 0 -1 0 38)">
	<stop  offset="0" style="stop-color:#F3F7FF"/>
        <stop  offset="0.99" style="stop-color:#B5D1FF"/>
</linearGradient>
    <path fill="url(#SVGID_2_)" d="M9.25,0C7.9781199,0,6.9375,1.04062,6.9375,2.3125v32.375C6.9375,35.9594002,7.9781199,37,9.25,37h23.125
	c1.2719002,0,2.3125-1.0405998,2.3125-2.3125V9.25L25.4375,0H9.25z"/>
    <linearGradient id="SVGID_3_" gradientUnits="userSpaceOnUse" x1="27.4854393" y1="38.7039528" x2="30.4284401" y2="29.0922737" gradientTransform="matrix(1 0 0 -1 0 38)">
	<stop  offset="0" style="stop-color:#81B2FD"/>
        <stop  offset="1" style="stop-color:#085BFB"/>
</linearGradient>
    <path fill="url(#SVGID_3_)" d="M27.75,9.25h7.2765007L25.4375,0v6.9375C25.4375,8.2093801,26.4780998,9.25,27.75,9.25z"/>
    <path fill="#A8C6FD" d="M34.6875,16.1875L27.75,9.25h6.9375V16.1875z"/>
    <linearGradient id="SVGID_4_" gradientUnits="userSpaceOnUse" x1="16.1875" y1="20.6562004" x2="16.1875" y2="6.7812004" gradientTransform="matrix(1 0 0 -1 0 38)">
	<stop  offset="0" style="stop-color:#FFBE15"/>
        <stop  offset="1" style="stop-color:#FF9900"/>
</linearGradient>
    <path fill="url(#SVGID_4_)" d="M30.0625,30.0625c0,0.6359005-0.5202999,1.1562996-1.1562996,1.1562996H3.46875
	c-0.6359401,0-1.15625-0.5203991-1.15625-1.1562996V18.5c0-0.6359005,0.5203099-1.1562004,1.15625-1.1562004h25.4374504
	c0.6359997,0,1.1562996,0.5202999,1.1562996,1.1562004V30.0625z"/>
    <path fill="#FFFFFF" d="M9.5850601,27.7504997c-0.5827503,0-0.8140001-0.5630989-0.4809999-0.9608994l3.2918396-4.3729H9.6671495
	c-0.8035898,0-0.7388391-1.1355,0-1.1355h3.7265501c0.7019005,0,0.9054003,0.6637001,0.4070005,1.2013988l-3.1529999,4.0943012
	h3.0050001c0.7399998,0,0.8324995,1.1746998-0.0728006,1.1746998H9.5850601V27.7504997z"/>
    <path fill="#FFFFFF" d="M15.3232002,21.9074993c0-0.7584991,1.2210007-0.7862988,1.2210007,0v5.2782001
	c0,0.7665997-1.2210007,0.7863007-1.2210007,0V21.9074993z"/>
    <path fill="#FFFFFF" d="M18.1830997,21.9078007c0-0.3052998,0.2404995-0.6382999,0.6289997-0.6382999h2.135601
	c1.2024994,0,2.2847004,0.8048,2.2847004,2.3471985c0,1.4615002-1.082201,2.2755013-2.2847004,2.2755013h-1.5436001v1.2209988
	c0,0.4070015-0.2590008,0.6371002-0.592001,0.6371002c-0.3051987,0-0.6289997-0.2300987-0.6289997-0.6371002V21.9078007z
	 M19.4029007,22.4339008v2.3031998h1.5436001c0.6197987,0,1.1099987-0.5468998,1.1099987-1.1204014
	c0-0.6462994-0.4902-1.1827984-1.1099987-1.1827984H19.4029007z"/>
    <path fill="#A8C6FD" d="M28.9062004,31.2187996H6.9375V32.375h21.9687004c0.6359997,0,1.1562996-0.5202999,1.1562996-1.1562004V30.0625
	C30.0625,30.6984005,29.5422001,31.2187996,28.9062004,31.2187996z"/>
</svg>