<?xml version="1.0" encoding="utf-8"?>
<!-- Generator: Adobe Illustrator 24.2.3, SVG Export Plug-In . SVG Version: 6.00 Build 0)  -->
<svg version="1.1" id="Слой_1" xmlns="http://www.w3.org/2000/svg" xmlns:xlink="http://www.w3.org/1999/xlink" x="0px" y="0px"
     viewBox="0 0 37 37" style="enable-background:new 0 0 37 37;" xml:space="preserve">
    <g id="icon_pdf">

		<linearGradient id="Vector_3_2_" gradientUnits="userSpaceOnUse" x1="28.0298901" y1="17.0330658" x2="38.4149895" y2="13.1305962" gradientTransform="matrix(1 0 0 -1 0 38)">
		<stop  offset="0" style="stop-color:#81B2FD"/>
            <stop  offset="1" style="stop-color:#085BFB"/>
	</linearGradient>
        <path id="Vector_3" fill="url(#Vector_3_2_)" d="M35.1934013,34.8905983L35.0261993,9.25h-0.8773003L32.5195007,37h0.5643997
		C34.2489014,37,35.1934013,36.0555992,35.1934013,34.8905983z"/>

        <linearGradient id="Vector_1_" gradientUnits="userSpaceOnUse" x1="20.8125" y1="238.8730011" x2="20.8125" y2="-5659.1499023" gradientTransform="matrix(1 0 0 -1 0 38)">
		<stop  offset="0" style="stop-color:#F3F7FF"/>
            <stop  offset="0.99" style="stop-color:#B5D1FF"/>
	</linearGradient>
        <path id="Vector" fill="url(#Vector_1_)" d="M9.25,0C7.9781199,0,6.9375,1.04062,6.9375,2.3125v32.375C6.9375,35.9594002,7.9781199,37,9.25,37
		h23.125c1.2719002,0,2.3125-1.0405998,2.3125-2.3125V9.25L25.4375,0H9.25z"/>

        <linearGradient id="Vector_2_1_" gradientUnits="userSpaceOnUse" x1="27.8467598" y1="38.7163811" x2="30.4534607" y2="28.8954754" gradientTransform="matrix(1 0 0 -1 0 38)">
		<stop  offset="0" style="stop-color:#81B2FD"/>
            <stop  offset="1" style="stop-color:#085BFB"/>
	</linearGradient>
        <path id="Vector_2" fill="url(#Vector_2_1_)" d="M27.75,9.25h7.2626991L25.4375,0v6.9375C25.4375,8.2093801,26.4780998,9.25,27.75,9.25z"/>
        <path id="Vector_3_1_" fill="#A8C6FD" d="M34.6875,16.1875L27.75,9.25h6.9375V16.1875z"/>

        <linearGradient id="Vector_4_1_" gradientUnits="userSpaceOnUse" x1="16.1875" y1="20.6562004" x2="16.1875" y2="6.7812004" gradientTransform="matrix(1 0 0 -1 0 38)">
		<stop  offset="0" style="stop-color:#FF437B"/>
            <stop  offset="1" style="stop-color:#EA2554"/>
	</linearGradient>
        <path id="Vector_4" fill="url(#Vector_4_1_)" d="M30.0625,30.0625c0,0.6359005-0.5202999,1.1562996-1.1562996,1.1562996H3.46875
		c-0.6359401,0-1.15625-0.5203991-1.15625-1.1562996V18.5c0-0.6359005,0.5203099-1.1562004,1.15625-1.1562004h25.4374504
		c0.6359997,0,1.1562996,0.5202999,1.1562996,1.1562004V30.0625z"/>
        <g id="Group">
		<path id="Vector_5" fill="#FFFFFF" d="M7.35254,21.9078007c0-0.3052998,0.2405-0.6382999,0.62784-0.6382999h2.1356201
			c1.2024994,0,2.2846994,0.8048,2.2846994,2.3471985c0,1.4615002-1.0822001,2.2755013-2.2846994,2.2755013H8.5723801v1.2209988
			c0,0.4070015-0.2589998,0.6371002-0.592,0.6371002c-0.3052502,0-0.62784-0.2300987-0.62784-0.6371002V21.9078007z
			 M8.5723801,22.4339008v2.3031998h1.5436201c0.6196995,0,1.1099997-0.5468998,1.1099997-1.1204014
			c0-0.6462994-0.4903002-1.1827984-1.1099997-1.1827984H8.5723801z"/>
            <path id="Vector_6" fill="#FFFFFF" d="M14.2115002,27.7500992c-0.3052998,0-0.6382999-0.1665001-0.6382999-0.5723991v-5.2516994
			c0-0.3318005,0.3330002-0.5734997,0.6382999-0.5734997h2.1170998c4.2248993,0,4.1324005,6.3975983,0.0832005,6.3975983H14.2115002
			z M14.7941999,22.4810009v4.1416988h1.5344c2.4962997,0,2.6072998-4.1416988,0-4.1416988H14.7941999z"/>
            <path id="Vector_7" fill="#FFFFFF" d="M21.9594002,22.5552006v1.4695988h2.3575993
			c0.3330002,0,0.6660004,0.3330002,0.6660004,0.6556015c0,0.3052998-0.3330002,0.5549984-0.6660004,0.5549984h-2.3575993v1.9414005
			c0,0.3237-0.2301006,0.5723-0.5538006,0.5723c-0.4069996,0-0.6555996-0.2486-0.6555996-0.5723v-5.2516994
			c0-0.3318996,0.2497997-0.5734997,0.6555996-0.5734997h3.2455997c0.4070015,0,0.647501,0.2416,0.647501,0.5734997
			c0,0.2959995-0.2404995,0.6289997-0.647501,0.6289997h-2.6917992V22.5552006z"/>
	</g>
        <path id="Vector_8" fill="#A8C6FD" d="M28.9062004,31.2187996H6.9375V32.375h21.9687004
		c0.6359997,0,1.1562996-0.5202999,1.1562996-1.1562004V30.0625C30.0625,30.6984005,29.5422001,31.2187996,28.9062004,31.2187996z"
        />
</g>
</svg>