<svg viewBox="0 0 35 36" fill="none" xmlns="http://www.w3.org/2000/svg"><circle cx="17.5" cy="17.5417" r="17.5" /><defs><linearGradient id="notification-red-gradient" x1="12.5" y1="0" x2="12.5" y2="25" gradientUnits="userSpaceOnUse"><stop stop-color="#CF2644"/><stop offset="1" stop-color="#C41333"/></linearGradient><linearGradient id="notification-green-gradient" x1="21.5" y1="0.041748" x2="21.5" y2="35.0417" gradientUnits="userSpaceOnUse"><stop stop-color="#2DBA65"/><stop offset="1" stop-color="#2F9D5B"/></linearGradient></defs><g clip-path="url(#clip0)"><path d="M13.3831 21.6788C13.5095 21.5681 13.6288 21.4635 13.6865 21.3597C13.6911 21.3513 13.6961 21.3429 13.7032 21.3312C13.9239 20.9778 14.0068 20.0961 14.0563 19.5694C14.0637 19.4903 14.0708 19.4146 14.0779 19.3438C14.0787 19.3367 14.0795 19.3296 14.0809 19.3188C14.1944 18.5255 14.4761 17.3815 15.1739 16.4369C15.6567 15.7834 16.2565 15.342 16.9591 15.1227C17.0314 14.6131 17.4705 14.22 17.9998 14.22C18.5291 14.22 18.9683 14.6132 19.0405 15.1228C19.743 15.342 20.3429 15.7833 20.8257 16.437C21.5235 17.3813 21.8053 18.5254 21.9187 19.3187L21.9195 19.3251C21.9204 19.3319 21.9212 19.3385 21.9216 19.3434C21.9288 19.4146 21.9359 19.4901 21.9433 19.5692C21.9928 20.0961 22.0757 20.978 22.2985 21.3345C22.3024 21.341 22.3061 21.3475 22.3117 21.3573C22.3707 21.4635 22.4901 21.5681 22.6163 21.6789C22.9268 21.9509 23.5729 22.5172 23.0406 23.5056C22.9377 23.6969 22.7387 23.8157 22.5214 23.8157H13.4781C13.261 23.8157 13.0622 23.6969 12.959 23.5056C12.4268 22.5175 13.0726 21.9511 13.3831 21.6788Z" fill="white"/><path d="M16.9726 24.8031H19.0646C19.1505 24.8031 19.2313 24.8407 19.2863 24.9062C19.3894 25.029 19.3606 25.1928 19.3433 25.2906L19.342 25.2984C19.2282 25.9508 18.6642 26.4244 18.0011 26.4244C17.3256 26.4244 16.7461 25.9206 16.6531 25.2533L16.6511 25.2424C16.6396 25.1818 16.6127 25.04 16.7129 24.9189C16.7488 24.8757 16.8301 24.8031 16.9726 24.8031Z" fill="white"/><path opacity="1" d="M21.7128 10.3146C21.7824 9.88924 22.1834 9.60068 22.609 9.6706C23.7849 9.86313 24.8708 10.4579 25.6668 11.3452C26.4657 12.2359 26.9262 13.338 26.9983 14.5325C27.0243 14.9627 26.6966 15.3325 26.2665 15.3584C26.2505 15.3594 26.2345 15.3599 26.2187 15.3599C25.8093 15.3599 25.4656 15.0407 25.4406 14.6265C25.3899 13.7873 25.0664 13.013 24.5051 12.3873C23.9377 11.7548 23.1949 11.3479 22.3569 11.2107C21.9314 11.141 21.6431 10.7398 21.7128 10.3146Z" fill="white"/><path opacity="1" d="M22.6751 15.7149C22.6481 15.268 22.4758 14.8556 22.1769 14.5224C21.8748 14.1856 21.4791 13.9689 21.0328 13.8958C20.6076 13.8261 20.3192 13.425 20.3889 12.9996C20.4585 12.5744 20.8594 12.2857 21.285 12.3557C22.0748 12.4849 22.8042 12.8843 23.3387 13.4803C23.8676 14.0699 24.1852 14.83 24.2329 15.6208C24.2589 16.0509 23.9313 16.4207 23.5011 16.4467C23.4851 16.4477 23.4692 16.4482 23.4533 16.4482C23.0439 16.4482 22.7001 16.1291 22.6751 15.7149Z" fill="white"/><path d="M9.00124 14.5315C9.07339 13.3371 9.53383 12.235 10.3328 11.3442C11.1287 10.4569 12.2147 9.86218 13.3906 9.66965C13.8157 9.59963 14.2171 9.88829 14.2867 10.3136C14.3564 10.7389 14.0681 11.1401 13.6428 11.2098C12.8048 11.3471 12.0618 11.7539 11.4945 12.3863C10.9332 13.0121 10.6097 13.7864 10.5591 14.6256C10.5341 15.0398 10.1904 15.359 9.78088 15.359C9.76506 15.359 9.74915 15.3585 9.73312 15.3575C9.30291 15.3315 8.97523 14.9617 9.00124 14.5315Z" fill="white"/><path d="M12.6608 13.4804C13.1954 12.8845 13.9248 12.4851 14.7145 12.3558C15.14 12.2859 15.5411 12.5744 15.6107 12.9998C15.6804 13.4251 15.392 13.8263 14.9667 13.8959C14.5204 13.969 14.1247 14.1857 13.8226 14.5225C13.5237 14.8558 13.3514 15.2681 13.3245 15.715C13.2995 16.1292 12.9558 16.4483 12.5463 16.4483C12.5305 16.4483 12.5146 16.4479 12.4986 16.4469C12.0684 16.421 11.7408 16.0513 11.7667 15.621C11.8143 14.8303 12.1319 14.0701 12.6608 13.4804Z" fill="white"/></g><defs><linearGradient id="paint0_linear" x1="17.5" y1="0.041748" x2="17.5" y2="35.0417" gradientUnits="userSpaceOnUse"><stop stop-color="#CF2644"/><stop offset="1" stop-color="#C41333"/></linearGradient><clipPath id="clip0"><rect width="18" height="18" fill="white" transform="matrix(-1 0 0 1 27 9.04175)"/></clipPath></defs></svg>