<svg version="1.1" id="Слой_1" xmlns="http://www.w3.org/2000/svg" xmlns:xlink="http://www.w3.org/1999/xlink" x="0px" y="0px"
     viewBox="0 0 37 37" style="enable-background:new 0 0 37 37;" xml:space="preserve">
    <g id="icon_png">

		<linearGradient id="Vector_3_2_" gradientUnits="userSpaceOnUse" x1="28.0298901" y1="17.0330658" x2="38.4149895" y2="13.1305962" gradientTransform="matrix(1 0 0 -1 0 38)">
		<stop  offset="0" style="stop-color:#81B2FD"/>
            <stop  offset="1" style="stop-color:#085BFB"/>
	</linearGradient>
        <path id="Vector_3" fill="url(#Vector_3_2_)" d="M35.1934013,34.8905983L35.0261993,9.25h-0.8773003L32.5195007,37h0.5643997
		C34.2489014,37,35.1934013,36.0555992,35.1934013,34.8905983z"/>

        <linearGradient id="Vector_1_" gradientUnits="userSpaceOnUse" x1="20.8125" y1="238.8730011" x2="20.8125" y2="-5659.1499023" gradientTransform="matrix(1 0 0 -1 0 38)">
		<stop  offset="0" style="stop-color:#F3F7FF"/>
            <stop  offset="0.99" style="stop-color:#B5D1FF"/>
	</linearGradient>
        <path id="Vector" fill="url(#Vector_1_)" d="M9.25,0C7.9781199,0,6.9375,1.04062,6.9375,2.3125v32.375C6.9375,35.9594002,7.9781199,37,9.25,37
		h23.125c1.2719002,0,2.3125-1.0405998,2.3125-2.3125V9.25L25.4375,0H9.25z"/>

        <linearGradient id="Vector_2_1_" gradientUnits="userSpaceOnUse" x1="27.7687645" y1="38.7174187" x2="30.4544659" y2="28.9425411" gradientTransform="matrix(1 0 0 -1 0 38)">
		<stop  offset="0" style="stop-color:#81B2FD"/>
            <stop  offset="1" style="stop-color:#085BFB"/>
	</linearGradient>
        <path id="Vector_2" fill="url(#Vector_2_1_)" d="M27.75,9.25h7.2773018L25.4375,0v6.9375C25.4375,8.2093801,26.4780998,9.25,27.75,9.25z"/>
        <path id="Vector_3_1_" fill="#A8C6FD" d="M34.6875,16.1875L27.75,9.25h6.9375V16.1875z"/>

        <linearGradient id="Vector_4_1_" gradientUnits="userSpaceOnUse" x1="16.1875" y1="20.6562004" x2="16.1875" y2="6.7812004" gradientTransform="matrix(1 0 0 -1 0 38)">
		<stop  offset="0" style="stop-color:#D16CE2"/>
            <stop  offset="1" style="stop-color:#781F87"/>
	</linearGradient>
        <path id="Vector_4" fill="url(#Vector_4_1_)" d="M30.0625,30.0625c0,0.6359005-0.5202999,1.1562996-1.1562996,1.1562996H3.46875
		c-0.6359401,0-1.15625-0.5203991-1.15625-1.1562996V18.5c0-0.6359005,0.5203099-1.1562004,1.15625-1.1562004h25.4374504
		c0.6359997,0,1.1562996,0.5202999,1.1562996,1.1562004V30.0625z"/>
        <g id="Group">
		<path id="Vector_5" fill="#FFFFFF" d="M6.70752,21.9074993c0-0.3052998,0.2393398-0.6393986,0.62784-0.6393986h2.1367602
			c1.2013798,0,2.2835798,0.8046989,2.2835798,2.348299c0,1.4615002-1.0822001,2.2744007-2.2835798,2.2744007H7.9262099v1.2209988
			c0,0.4081001-0.25669,0.6382008-0.5908499,0.6382008c-0.3052502,0-0.62784-0.2301006-0.62784-0.6382008V21.9074993z
			 M7.9262099,22.4335995v2.3021011h1.5447497c0.6186399,0,1.10884-0.5458012,1.10884-1.1193008
			c0-0.6474991-0.4902-1.1828003-1.10884-1.1828003H7.9262099z"/>
            <path id="Vector_6" fill="#FFFFFF" d="M12.9337997,22c0-0.3341999,0.0740004-0.6567993,0.5550003-0.6567993
			c0.3317995,0,0.4069996,0.0832996,0.6555996,0.3225994l3.0594006,3.8283997v-3.5867004
			c0-0.3052998,0.2670994-0.6393986,0.5827999-0.6393986c0.3330002,0,0.6555004,0.3340988,0.6555004,0.6393986v5.2042999
			c0,0.4081001-0.2497005,0.5631008-0.4902,0.6382008c-0.3226013,0-0.4810009-0.0739994-0.7481003-0.3225994l-3.0594006-3.8838005
			v3.5692997c0,0.4081993-0.2497997,0.6382999-0.5827999,0.6382999S12.9326,27.5210991,12.9326,27.1128998V22H12.9337997z"/>
            <path id="Vector_7" fill="#FFFFFF" d="M25.3971996,27.0387993c-0.6567993,0.5446014-1.4615002,0.7770004-2.2743988,0.7770004
			c-1.9425011,0-3.3196011-1.1100006-3.3196011-3.3102989c0-1.8674011,1.452301-3.3185005,3.401701-3.3185005
			c0.7307987,0,1.534399,0.2497997,2.1078987,0.8139992c0.5642014,0.5538998-0.2497997,1.3771-0.8036003,0.8880005
			c-0.3422985-0.3341007-0.8232994-0.5827007-1.3042984-0.5827007c-1.1181011,0-2.1992016,0.896101-2.1992016,2.1992016
			c0,1.3689995,0.9054012,2.2002983,2.1171017,2.2002983c0.5630989,0,1.0440998-0.1664982,1.3863983-0.4162998v-1.1353989
			h-1.3863983c-0.8232002,0-0.7400017-1.1296005,0-1.1296005h1.8488998c0.3421993,0,0.6555996,0.2600994,0.6555996,0.5468998
			v1.969101C25.6273003,26.7057991,25.5543995,26.8619003,25.3971996,27.0387993z"/>
	</g>
        <path id="Vector_8" fill="#A8C6FD" d="M28.9062004,31.2187996H6.9375V32.375h21.9687004
		c0.6359997,0,1.1562996-0.5202999,1.1562996-1.1562004V30.0625C30.0625,30.6984005,29.5422001,31.2187996,28.9062004,31.2187996z"
        />
</g>
</svg>