<svg width="87" height="57" viewBox="0 0 87 57" fill="none" xmlns="http://www.w3.org/2000/svg"><path d="M8.7013 8.17068H10.0631V55.9284H5.19288C1.57381 55.7245 0 53.1697 0 50.834C0 40.3846 0.501725 19.8997 0.501725 16.0768C0.501725 12.2538 4.96239 8.17068 8.7013 8.17068Z" fill="#FF8F3F"/><path d="M3.94997 14.4786C3.99874 12.5767 5.53484 10.9633 6.2968 10.3944L40.5727 36.7302L74.0208 9.2937C74.5598 9.80268 76.01 11.3471 76.1098 11.7588L76.8099 50.8489C76.6302 54.0525 73.8305 55.9609 71.5448 55.9609H8.82671C5.8678 55.9609 3.76709 52.5497 3.76709 50.4442C3.80773 39.2481 3.9012 16.3805 3.94997 14.4786Z" fill="#FFBE3F"/><path d="M46.0526 32.5066L74.402 54.7925C73.5516 55.7344 72.3716 55.99 71.8879 56.0001L8.27967 55.8883C7.10215 55.8436 6.14947 55.0498 5.82031 54.6586L34.3065 32.5066H46.0526Z" fill="#F79829"/><path d="M9.68011 8.56878C8.39204 8.56878 6.61615 9.73925 6.33105 10.2636L40.4442 36.8567L73.8793 9.31243C73.6833 8.77335 72.6051 8.45874 70.9634 8.45874L9.68011 8.56878Z" fill="#FFC758" stroke="#E27242" stroke-linecap="round" stroke-linejoin="round"/><path d="M3.94997 14.4787C3.99874 12.5769 5.53484 10.9634 6.2968 10.3945L40.5727 36.7303L73.8149 9.3382C75.3867 9.82078 76.1641 12.5921 76.1641 14.4787L76.7352 50.6249C76.5556 53.8285 73.8305 55.961 71.5448 55.961H8.82671C5.8678 55.961 3.76709 52.5498 3.76709 50.4443C3.80773 39.2482 3.9012 16.3806 3.94997 14.4787Z" stroke="#E27242"/><path d="M85.1165 14.6809C85.1165 22.2314 78.5132 28.6922 70.3676 28.6922C62.222 28.6922 55.6187 22.2314 55.6187 14.6809C55.6187 7.13033 62.222 0.614502 70.3676 0.614502C78.5132 0.614502 85.1165 7.13033 85.1165 14.6809Z" fill="#B52424"/><circle cx="72.1343" cy="14.681" r="13.6841" fill="#FF3737" stroke="#E31818"/><path d="M70.1099 8.43461V9.95849V10.3517H72.4694V21.7074H75.4681V7.59888L70.1099 8.43461Z" fill="white"/><rect x="75.468" y="7.59888" width="1.71404" height="14.1085" fill="#DA1414"/></svg>
