<?xml version="1.0" encoding="utf-8"?>
<!-- Generator: Adobe Illustrator 24.2.3, SVG Export Plug-In . SVG Version: 6.00 Build 0)  -->
<svg version="1.1" id="Слой_1" xmlns="http://www.w3.org/2000/svg" xmlns:xlink="http://www.w3.org/1999/xlink" x="0px" y="0px"
     viewBox="0 0 37 37" style="enable-background:new 0 0 37 37;" xml:space="preserve">
    <g id="icon_raw">

		<linearGradient id="Vector_3_2_" gradientUnits="userSpaceOnUse" x1="28.0298901" y1="17.0330658" x2="38.4149895" y2="13.1305962" gradientTransform="matrix(1 0 0 -1 0 38)">
		<stop  offset="0" style="stop-color:#81B2FD"/>
            <stop  offset="1" style="stop-color:#085BFB"/>
	</linearGradient>
        <path id="Vector_3" fill="url(#Vector_3_2_)" d="M35.1934013,34.8905983L35.0261993,9.25h-0.8773003L32.5195007,37h0.5643997
		C34.2489014,37,35.1934013,36.0555992,35.1934013,34.8905983z"/>

        <linearGradient id="Vector_1_" gradientUnits="userSpaceOnUse" x1="20.8125" y1="238.8730011" x2="20.8125" y2="-5659.1499023" gradientTransform="matrix(1 0 0 -1 0 38)">
		<stop  offset="0" style="stop-color:#F3F7FF"/>
            <stop  offset="0.99" style="stop-color:#B5D1FF"/>
	</linearGradient>
        <path id="Vector" fill="url(#Vector_1_)" d="M9.25,0C7.9781199,0,6.9375,1.04062,6.9375,2.3125v32.375C6.9375,35.9594002,7.9781199,37,9.25,37
		h23.125c1.2719002,0,2.3125-1.0405998,2.3125-2.3125V9.25L25.4375,0H9.25z"/>

        <linearGradient id="Vector_2_1_" gradientUnits="userSpaceOnUse" x1="27.5820103" y1="38.7103462" x2="30.4381104" y2="29.0411816" gradientTransform="matrix(1 0 0 -1 0 38)">
		<stop  offset="0" style="stop-color:#81B2FD"/>
            <stop  offset="1" style="stop-color:#085BFB"/>
	</linearGradient>
        <path id="Vector_2" fill="url(#Vector_2_1_)" d="M27.75,9.25h7.2761002L25.4375,0v6.9375C25.4375,8.2093801,26.4780998,9.25,27.75,9.25z"/>
        <path id="Vector_3_1_" fill="#A8C6FD" d="M34.6875,16.1875L27.75,9.25h6.9375V16.1875z"/>

        <linearGradient id="Vector_4_1_" gradientUnits="userSpaceOnUse" x1="16.1875" y1="20.6562004" x2="16.1875" y2="6.7812004" gradientTransform="matrix(1 0 0 -1 0 38)">
		<stop  offset="0" style="stop-color:#576D7E"/>
            <stop  offset="1" style="stop-color:#365166"/>
	</linearGradient>
        <path id="Vector_4" fill="url(#Vector_4_1_)" d="M30.0625,30.0625c0,0.6359005-0.5202999,1.1562996-1.1562996,1.1562996H3.46875
		c-0.6359401,0-1.15625-0.5203991-1.15625-1.1562996V18.5c0-0.6359005,0.5203099-1.1562004,1.15625-1.1562004h25.4374504
		c0.6359997,0,1.1562996,0.5202999,1.1562996,1.1562004V30.0625z"/>
        <g id="Group">
		<path id="Vector_5" fill="#FFFFFF" d="M6.8591599,27.1487999c0,0.8036003-1.2302499,0.8313999-1.2302499,0.0184994v-5.2504997
			c0-0.3237991,0.2508998-0.5642986,0.5549998-0.5642986h2.4593406c2.3471498,0,2.8281498,3.1438999,0.8683395,3.9289989
			l1.2291098,1.4972992c0.4809999,0.7123013-0.4798994,1.3956013-1.0360098,0.6938019l-1.3956003-1.9969006H6.8591599V27.1487999z
			 M6.8591599,24.4120007h1.7840905c1.2013397,0,1.2764997-1.9414005,0-1.9414005H6.8591599V24.4120007z"/>
            <path id="Vector_6" fill="#FFFFFF" d="M11.7524004,27.7497005c-0.2960005-0.1676006-0.4809999-0.4995003-0.2960005-0.8880005
			l2.6524-5.1858006c0.2497997-0.4902,0.9158001-0.5086994,1.1470003,0l2.6061993,5.1858006
			c0.3793011,0.7203999-0.7399998,1.2938995-1.0718002,0.5734997L16.382,26.6212006h-3.4109001l-0.3977995,0.8139992
			C12.4265003,27.7497005,12.0841999,27.8155994,11.7524004,27.7497005z M15.7276001,25.4013996l-1.0440998-2.2835999
			l-1.1366005,2.2835999H15.7276001z"/>
            <path id="Vector_7" fill="#FFFFFF" d="M24.6606007,25.5403004l1.3771-3.8087006
			c0.2775002-0.7481003,1.3955994-0.3978004,1.1192989,0.4069996l-1.8304005,4.964901
			c-0.1675987,0.5272999-0.3237,0.6844997-0.6381989,0.6844997c-0.3330002,0-0.4348011-0.2045994-0.6198006-0.5365009
			l-1.6082993-3.6513996l-1.5354996,3.5958996c-0.1665001,0.3874016-0.3226013,0.6094017-0.6556015,0.6094017
			c-0.3225994,0-0.4902992-0.2220001-0.6382999-0.6290016l-1.7932987-5.0377998
			c-0.2775002-0.8312988,0.8960991-1.1365986,1.1365986-0.4069996l1.3690014,3.8087006l1.6360989-3.8087006
			c0.2208004-0.5643005,0.8036003-0.5919991,1.0440998-0.0265999L24.6606007,25.5403004z"/>
	</g>
        <path id="Vector_8" fill="#A8C6FD" d="M28.9062004,31.2187996H6.9375V32.375h21.9687004
		c0.6359997,0,1.1562996-0.5202999,1.1562996-1.1562004V30.0625C30.0625,30.6984005,29.5422001,31.2187996,28.9062004,31.2187996z"
        />
</g>
</svg>