<svg width="18" height="17" viewBox="0 0 18 17" fill="none" xmlns="http://www.w3.org/2000/svg"><path d="M9 0C4.308 0 0.5 3.808 0.5 8.5C0.5 13.192 4.308 17 9 17C13.692 17 17.5 13.192 17.5 8.5C17.5 3.808 13.692 0 9 0ZM9 15.3C5.243 15.3 2.2 12.257 2.2 8.5C2.2 6.9275 2.7355 5.4825 3.6365 4.335L13.165 13.8635C12.0175 14.7645 10.5725 15.3 9 15.3ZM14.3635 12.665L4.835 3.1365C5.9825 2.2355 7.4275 1.7 9 1.7C12.757 1.7 15.8 4.743 15.8 8.5C15.8 10.0725 15.2645 11.5175 14.3635 12.665Z" fill="white"/></svg>
