<svg width="32" height="32" viewBox="0 0 32 32" fill="none" xmlns="http://www.w3.org/2000/svg"><g clip-path="url(#clip0)"><path d="M19.4057 25.9994C19.4057 28.8529 17.0924 31.166 14.2389 31.166C11.3853 31.166 9.07227 28.8529 9.07227 25.9994C9.07227 23.1459 11.3853 20.8326 14.2389 20.8326C17.0924 20.8326 19.4057 23.1459 19.4057 25.9994Z" fill="#FFA000"/><path d="M23.2908 15.5641C18.9121 14.9388 15.5307 11.1735 15.5307 6.62445C15.5307 5.33263 15.8069 4.10703 16.2965 2.99471C15.6352 2.8398 14.9482 2.74945 14.2389 2.74945C9.2532 2.74945 5.19727 6.80515 5.19727 11.791V15.3922C5.19727 17.9484 4.07738 20.3613 2.11269 22.0223C1.61034 22.4511 1.32227 23.0776 1.32227 23.7389C1.32227 24.9855 2.33619 25.9995 3.5826 25.9995H24.8951C26.1418 25.9995 27.1557 24.9855 27.1557 23.7389C27.1557 23.0776 26.8676 22.4511 26.3522 22.0107C24.4457 20.3974 23.34 18.0555 23.2908 15.5641Z" fill="#FFC107"/><path d="M31.0311 6.62443C31.0311 10.1913 28.1395 13.0826 24.5727 13.0826C21.0058 13.0826 18.1143 10.1913 18.1143 6.62443C18.1143 3.0576 21.0058 0.166016 24.5727 0.166016C28.1395 0.166016 31.0311 3.0576 31.0311 6.62443Z" fill="#F44336"/></g><defs><clipPath id="clip0"><rect width="31" height="31" fill="white" transform="translate(0.65625 0.166016)"/></clipPath></defs></svg>
