<?xml version="1.0" encoding="utf-8"?>
<!-- Generator: Adobe Illustrator 24.2.3, SVG Export Plug-In . SVG Version: 6.00 Build 0)  -->
<svg version="1.1" id="Слой_1" xmlns="http://www.w3.org/2000/svg" xmlns:xlink="http://www.w3.org/1999/xlink" x="0px" y="0px"
     viewBox="0 0 37 37" style="enable-background:new 0 0 37 37;" xml:space="preserve">
<style type="text/css">
</style>
    <linearGradient id="Vector_3_2_" gradientUnits="userSpaceOnUse" x1="28.0298901" y1="17.0330658" x2="38.4149895" y2="13.1305962" gradientTransform="matrix(1 0 0 -1 0 38)">
	<stop  offset="0" style="stop-color:#81B2FD"/>
        <stop  offset="1" style="stop-color:#085BFB"/>
</linearGradient>
    <path id="Vector_3" class="st0" fill="url(#Vector_3_2_)" d="M35.1934013,34.8905983L35.0261993,9.25h-0.8773003L32.5195007,37h0.5643997
	C34.2489014,37,35.1934013,36.0555992,35.1934013,34.8905983z"/>
    <linearGradient id="Vector_1_" gradientUnits="userSpaceOnUse" x1="20.8125" y1="238.8730011" x2="20.8125" y2="-5659.1499023" gradientTransform="matrix(1 0 0 -1 0 38)">
	<stop  offset="0" style="stop-color:#F3F7FF"/>
        <stop  offset="0.99" style="stop-color:#B5D1FF"/>
</linearGradient>
    <path id="Vector" fill="url(#Vector_1_)" d="M9.25,0C7.9781199,0,6.9375,1.04062,6.9375,2.3125v32.375C6.9375,35.9594002,7.9781199,37,9.25,37
	h23.125c1.2719002,0,2.3125-1.0405998,2.3125-2.3125V9.25L25.4375,0H9.25z"/>
    <linearGradient id="Vector_2_1_" gradientUnits="userSpaceOnUse" x1="27.6784477" y1="38.7152214" x2="30.4482479" y2="28.9914036" gradientTransform="matrix(1 0 0 -1 0 38)">
	<stop  offset="0" style="stop-color:#81B2FD"/>
        <stop  offset="1" style="stop-color:#085BFB"/>
</linearGradient>
    <path id="Vector_2" fill="url(#Vector_2_1_)" d="M27.75,9.25h7.2794991L25.4375,0v6.9375C25.4375,8.2093801,26.4780998,9.25,27.75,9.25z"/>
    <path id="Vector_3_1_" fill="#A8C6FD" d="M34.6875,16.1875L27.75,9.25h6.9375V16.1875z"/>
    <linearGradient id="Vector_4_1_" gradientUnits="userSpaceOnUse" x1="16.1875" y1="20.6562004" x2="16.1875" y2="6.7812004" gradientTransform="matrix(1 0 0 -1 0 38)">
	<stop  offset="0" style="stop-color:#505FE8"/>
        <stop  offset="1" style="stop-color:#2636CD"/>
</linearGradient>
    <path id="Vector_4" fill="url(#Vector_4_1_)" d="M30.0625,30.0625c0,0.6359005-0.5202999,1.1562996-1.1562996,1.1562996H3.46875
	c-0.6359401,0-1.15625-0.5203991-1.15625-1.1562996V18.5c0-0.6359005,0.5203099-1.1562004,1.15625-1.1562004h25.4374504
	c0.6359997,0,1.1562996,0.5202999,1.1562996,1.1562004V30.0625z"/>
    <g id="Group">
	<path id="Vector_5" fill="#FFFFFF" d="M10.2593002,21.9078999c0-0.7770004,1.2209997-0.7770004,1.2209997,0v3.6515007
		c0,1.4521999-0.6938,2.3309994-2.2928495,2.3309994c-0.7862501,0-1.4418502-0.2138996-2.0153503-0.9528008
		c-0.4717503-0.5641994,0.4162498-1.3771,0.8972502-0.7861996c0.3885002,0.4810009,0.8047495,0.592001,1.2105999,0.5734997
		c0.51684-0.0184994,0.9712496-0.2508984,0.9804497-1.1654987v-3.6515007H10.2593002z"/>
        <path id="Vector_6" fill="#FFFFFF" d="M13.1049995,21.9078007c0-0.3052998,0.2405005-0.6382999,0.6290007-0.6382999h2.1356001
		c1.2024994,0,2.2847004,0.8048,2.2847004,2.3471985c0,1.4615002-1.082201,2.2755013-2.2847004,2.2755013h-1.5436001v1.2209988
		c0,0.4070015-0.2589998,0.6371002-0.592,0.6371002c-0.3052998,0-0.6290007-0.2300987-0.6290007-0.6371002V21.9078007z
		 M14.3260002,22.4339008v2.3031998h1.5436001c0.6196995,0,1.1100006-0.5468998,1.1100006-1.1204014
		c0-0.6462994-0.4903011-1.1827984-1.1100006-1.1827984H14.3260002z"/>
        <path id="Vector_7" fill="#FFFFFF" d="M24.7565002,27.0391006c-0.6567001,0.5457993-1.4615002,0.7769985-2.2742996,0.7769985
		c-1.9425011,0-3.3196011-1.108799-3.3196011-3.3102989c0-1.8661995,1.4521999-3.3173008,3.401701-3.3173008
		c0.7306995,0,1.5342999,0.2486,2.1077995,0.8128014c0.5631008,0.5538998-0.2497005,1.3771-0.8036003,0.8879986
		c-0.3421993-0.3330002-0.8232002-0.5826988-1.3041992-0.5826988c-1.1181011,0-2.1991997,0.8960991-2.1991997,2.1991997
		c0,1.3689995,0.9052982,2.2014999,2.1170998,2.2014999c0.5630989,0,1.0440998-0.1676998,1.3862991-0.4162998v-1.1366005h-1.3862991
		c-0.8233013,0-0.7399998-1.1285,0-1.1285h1.8487988c0.3423004,0,0.6556015,0.2590008,0.6556015,0.5457993v1.969101
		C24.9866009,26.7073002,24.9137993,26.8621998,24.7565002,27.0391006z"/>
</g>
    <path id="Vector_8" fill="#A8C6FD" d="M28.9062004,31.2187996H6.9375V32.375h21.9687004
	c0.6359997,0,1.1562996-0.5202999,1.1562996-1.1562004V30.0625C30.0625,30.6984005,29.5422001,31.2187996,28.9062004,31.2187996z"/>
</svg>