<?xml version="1.0" encoding="utf-8"?>
<!-- Generator: Adobe Illustrator 24.2.3, SVG Export Plug-In . SVG Version: 6.00 Build 0)  -->
<svg version="1.1" id="Слой_1" xmlns="http://www.w3.org/2000/svg" xmlns:xlink="http://www.w3.org/1999/xlink" x="0px" y="0px"
     viewBox="0 0 37 37" style="enable-background:new 0 0 37 37;" xml:space="preserve">
    <linearGradient id="Vector_3_2_" gradientUnits="userSpaceOnUse" x1="28.0298901" y1="17.0330658" x2="38.4149895" y2="13.1305962" gradientTransform="matrix(1 0 0 -1 0 38)">
	<stop  offset="0" style="stop-color:#81B2FD"/>
        <stop  offset="1" style="stop-color:#085BFB"/>
</linearGradient>
    <path id="Vector_3" fill="url(#Vector_3_2_)" d="M35.1934013,34.8905983L35.0261993,9.25h-0.8773003L32.5195007,37h0.5643997
	C34.2489014,37,35.1934013,36.0555992,35.1934013,34.8905983z"/>
    <linearGradient id="Vector_1_" gradientUnits="userSpaceOnUse" x1="20.8125" y1="238.8730011" x2="20.8125" y2="-5659.1499023" gradientTransform="matrix(1 0 0 -1 0 38)">
	<stop  offset="0" style="stop-color:#F3F7FF"/>
        <stop  offset="0.99" style="stop-color:#B5D1FF"/>
</linearGradient>
    <path id="Vector" fill="url(#Vector_1_)" d="M9.25,0C7.9781199,0,6.9375,1.04062,6.9375,2.3125v32.375C6.9375,35.9594002,7.9781199,37,9.25,37
	h23.125c1.2719002,0,2.3125-1.0405998,2.3125-2.3125V9.25L25.4375,0H9.25z"/>
    <linearGradient id="Vector_2_1_" gradientUnits="userSpaceOnUse" x1="27.6706772" y1="38.7130089" x2="30.4404774" y2="28.9891891" gradientTransform="matrix(1 0 0 -1 0 38)">
	<stop  offset="0" style="stop-color:#81B2FD"/>
        <stop  offset="1" style="stop-color:#085BFB"/>
</linearGradient>
    <path id="Vector_2" fill="url(#Vector_2_1_)" d="M27.75,9.25h7.2626991L25.4375,0v6.9375C25.4375,8.2093801,26.4780998,9.25,27.75,9.25z"/>
    <path id="Vector_3_1_" fill="#A8C6FD" d="M34.6875,16.1875L27.75,9.25h6.9375V16.1875z"/>
    <linearGradient id="Vector_4_1_" gradientUnits="userSpaceOnUse" x1="16.1875" y1="20.6562004" x2="16.1875" y2="6.7812004" gradientTransform="matrix(1 0 0 -1 0 38)">
	<stop  offset="0" style="stop-color:#87E542"/>
        <stop  offset="1" style="stop-color:#52BD03"/>
</linearGradient>
    <path id="Vector_4" fill="url(#Vector_4_1_)" d="M30.0625,30.0625c0,0.6359005-0.5202999,1.1562996-1.1562996,1.1562996H3.46875
	c-0.6359401,0-1.15625-0.5203991-1.15625-1.1562996V18.5c0-0.6359005,0.5203099-1.1562004,1.15625-1.1562004h25.4374504
	c0.6359997,0,1.1562996,0.5202999,1.1562996,1.1562004V30.0625z"/>
    <g id="Group">
	<path id="Vector_5" fill="#FFFFFF" d="M10.4302998,23.5723L12.0387001,21.5569
		c0.4809999-0.6289997,1.4152002,0.1746006,0.8879995,0.7758999c-0.5538998,0.6567001-1.1365995,1.3689995-1.6915998,2.0986004
		l1.8858004,2.348299c0.5087996,0.6938-0.5075998,1.3586006-1.0071001,0.6741009l-1.7019997-2.1818008L8.73874,27.5011997
		c-0.4717503,0.6741009-1.5170002-0.0832005-0.9897499-0.7122002l1.8580904-2.3575993
		C9.0243301,23.7005997,8.4600801,22.9895,7.8969898,22.3327999c-0.5815997-0.6938,0.4995003-1.4048996,0.9250002-0.7562008
		L10.4302998,23.5723z"/>
        <path id="Vector_6" fill="#FFFFFF" d="M14.2622004,21.9074993c0-0.3051987,0.2589998-0.5641994,0.5827999-0.5641994
		c0.2959995,0,0.5457001,0.2600994,0.5457001,0.5641994v4.6319008h2.5148993c0.9053001,0,0.9250011,1.2105999,0,1.2105999
		h-3.0594997c-0.3237,0-0.5826998-0.2301006-0.5826998-0.5631008v-5.2793999H14.2622004z"/>
        <path id="Vector_7" fill="#FFFFFF" d="M19.6581001,22.7397995c0.2127991-1.7945004,2.9207001-2.1170998,4.1972008-1.1365986
		c0.6289997,0.5075989-0.0370007,1.3123989-0.592001,0.9053993c-0.6844997-0.4335995-2.2373009-0.6371002-2.4316006,0.3225994
		c-0.2496986,1.5170002,3.7716999,0.6485996,3.7070007,3.1079998c-0.0648003,2.3483009-3.4664993,2.4027004-4.743,1.3493004
		c-0.3064003-0.2497005-0.2959995-0.6555996-0.1294994-0.9064999c0.2404995-0.2392998,0.5075989-0.3225994,0.8232994-0.0636005
		c0.7572994,0.516901,2.7091007,0.9054012,2.8467007-0.4081001C23.2171001,24.5436001,19.3714008,25.3656998,19.6581001,22.7397995z
		"/>
</g>
    <path id="Vector_8" fill="#A8C6FD" d="M28.9062004,31.2187996H6.9375V32.375h21.9687004
	c0.6359997,0,1.1562996-0.5202999,1.1562996-1.1562004V30.0625C30.0625,30.6984005,29.5422001,31.2187996,28.9062004,31.2187996z"/>
</svg>